<svg xmlns="http://www.w3.org/2000/svg" viewBox="0 0 5509 1048"><g transform="translate(60.0,60.0) scale(0.92820)"><path d="M350,260 L590,500 L350,740 L110,500 Z M650,260 L890,500 L650,740 L410,500 Z" fill="#0B0B0C"/></g><g transform="translate(1262.1,867.1)"><path d="M260.0 0Q211.0 0 180.5 -30.5Q150.0 -61 150.0 -112V-392H26.0V-496H150.0V-650H276.0V-496H412.0V-392H276.0V-134Q276.0 -104 304.0 -104H400.0V0Z M670.0 14Q617.0 14 575.0 -4.5Q533.0 -23 508.5 -58.5Q484.0 -94 484.0 -145Q484.0 -222 538.0 -261.0Q592.0 -300 676.0 -300H812.0V-328Q812.0 -363 790.0 -385.5Q768.0 -408 720.0 -408Q673.0 -408 650.0 -386.5Q627.0 -365 620.0 -331L504.0 -370Q516.0 -408 542.5 -439.5Q569.0 -471 613.5 -490.5Q658.0 -510 722.0 -510Q820.0 -510 877.0 -461.0Q934.0 -412 934.0 -319V-134Q934.0 -104 962.0 -104H1002.0V0H918.0Q881.0 0 857.0 -18.0Q833.0 -36 833.0 -66V-67H814.0Q810.0 -55 796.0 -35.5Q782.0 -16 752.0 -1.0Q722.0 14 670.0 14ZM692.0 -88Q745.0 -88 778.5 -117.5Q812.0 -147 812.0 -196V-206H685.0Q650.0 -206 630.0 -191.0Q610.0 -176 610.0 -149Q610.0 -122 631.0 -105.0Q652.0 -88 692.0 -88Z M1084.0 0V-496H1208.0V-431H1226.0Q1238.0 -457 1271.0 -480.5Q1304.0 -504 1371.0 -504Q1429.0 -504 1472.5 -477.5Q1516.0 -451 1540.0 -404.5Q1564.0 -358 1564.0 -296V0H1438.0V-286Q1438.0 -342 1410.5 -370.0Q1383.0 -398 1332.0 -398Q1274.0 -398 1242.0 -359.5Q1210.0 -321 1210.0 -252V0Z M1890.0 14Q1831.0 14 1779.5 -15.5Q1728.0 -45 1697.0 -102.0Q1666.0 -159 1666.0 -240V-256Q1666.0 -337 1697.0 -394.0Q1728.0 -451 1779.0 -480.5Q1830.0 -510 1890.0 -510Q1958.0 -510 1993.0 -487.5Q2028.0 -465 2044.0 -439H2062.0V-700H2188.0V0H2064.0V-60H2046.0Q2029.0 -32 1993.5 -9.0Q1958.0 14 1890.0 14ZM1928.0 -96Q1986.0 -96 2025.0 -133.5Q2064.0 -171 2064.0 -243V-253Q2064.0 -325 2025.5 -362.5Q1987.0 -400 1928.0 -400Q1870.0 -400 1831.0 -362.5Q1792.0 -325 1792.0 -253V-243Q1792.0 -171 1831.0 -133.5Q1870.0 -96 1928.0 -96Z M2544.0 14Q2470.0 14 2413.5 -17.5Q2357.0 -49 2325.5 -106.5Q2294.0 -164 2294.0 -242V-254Q2294.0 -332 2325.0 -389.5Q2356.0 -447 2412.0 -478.5Q2468.0 -510 2542.0 -510Q2615.0 -510 2669.0 -477.5Q2723.0 -445 2753.0 -387.5Q2783.0 -330 2783.0 -254V-211H2422.0Q2424.0 -160 2460.0 -128.0Q2496.0 -96 2548.0 -96Q2601.0 -96 2626.0 -119.0Q2651.0 -142 2664.0 -170L2767.0 -116Q2753.0 -90 2726.5 -59.5Q2700.0 -29 2656.0 -7.5Q2612.0 14 2544.0 14ZM2423.0 -305H2655.0Q2651.0 -348 2620.5 -374.0Q2590.0 -400 2541.0 -400Q2490.0 -400 2460.0 -374.0Q2430.0 -348 2423.0 -305Z M2885.0 0V-496H3009.0V-442H3027.0Q3040.0 -467 3070.0 -485.5Q3100.0 -504 3149.0 -504Q3202.0 -504 3234.0 -483.5Q3266.0 -463 3283.0 -430H3301.0Q3318.0 -462 3349.0 -483.0Q3380.0 -504 3437.0 -504Q3483.0 -504 3520.5 -484.5Q3558.0 -465 3580.5 -425.5Q3603.0 -386 3603.0 -326V0H3477.0V-317Q3477.0 -358 3456.0 -378.5Q3435.0 -399 3397.0 -399Q3354.0 -399 3330.5 -371.5Q3307.0 -344 3307.0 -293V0H3181.0V-317Q3181.0 -358 3160.0 -378.5Q3139.0 -399 3101.0 -399Q3058.0 -399 3034.5 -371.5Q3011.0 -344 3011.0 -293V0Z M3469.0 0V-496H3593.0V-442H3611.0Q3624.0 -467 3654.0 -485.5Q3684.0 -504 3733.0 -504Q3786.0 -504 3818.0 -483.5Q3850.0 -463 3867.0 -430H3885.0Q3902.0 -462 3933.0 -483.0Q3964.0 -504 4021.0 -504Q4067.0 -504 4104.5 -484.5Q4142.0 -465 4164.5 -425.5Q4187.0 -386 4187.0 -326V0H4061.0V-317Q4061.0 -358 4040.0 -378.5Q4019.0 -399 3981.0 -399Q3938.0 -399 3914.5 -371.5Q3891.0 -344 3891.0 -293V0H3765.0V-317Q3765.0 -358 3744.0 -378.5Q3723.0 -399 3685.0 -399Q3642.0 -399 3618.5 -371.5Q3595.0 -344 3595.0 -293V0Z" fill="#0B0B0C"/></g></svg>